<svg width="371" height="153" viewBox="0 0 371 153" fill="none" xmlns="http://www.w3.org/2000/svg">
<path fill-rule="evenodd" clip-rule="evenodd" d="M120.86 11.43C128 9 128.59 0 121.51 0C119.56 0 117.23 1.37 115.63 4.17L106 20.73C105.603 21.4355 105.144 22.1047 104.63 22.73C102.17 19.34 102.89 14.28 106.34 12.06L105 10.27C97.54 15.02 99.73 28.75 112.18 28.75C122.78 28.74 127.7 16 120.86 11.43ZM112.07 26C110.282 26.0455 108.513 25.6214 106.94 24.77C107.603 23.978 108.199 23.1317 108.72 22.24L114.72 11.87L115.72 11.97C124 13.72 120.69 26 112.07 26ZM118.77 4.86L115.9 9.79C119.52 9.72 121.54 8.93 122.91 6.36C124.69 3.01 121.37 0.38 118.77 4.86Z" fill="white"/>
<path fill-rule="evenodd" clip-rule="evenodd" d="M259.97 19.27L260.21 19C260.825 19.1652 261.341 19.5831 261.63 20.15C258.72 23.54 255.34 26.62 250.17 26.72H249.96C248.149 26.7914 246.53 25.6 246.06 23.85L248.06 22.85C248.259 23.3878 248.772 23.7449 249.345 23.7449C249.918 23.7449 250.431 23.3878 250.63 22.85L256 13.54C256.93 11.93 254.46 9.94 250.46 15.35L239.82 33.86H236.23L242.71 22.62C241.516 23.187 240.22 23.5067 238.9 23.56H238.11C234.25 28.43 227.96 27.55 227.96 23.01C225.76 25.12 223.48 26.68 221.41 26.68C218.54 26.68 217.47 24.25 218.98 21.62L223.6 13.62C225.14 10.97 222.72 10.09 217.24 16.97L211.84 26.38H208.25L209.47 24.26C207.863 25.4746 205.986 26.2841 204 26.62H203.9C203.568 26.6607 203.234 26.684 202.9 26.69C201.089 26.7614 199.47 25.57 199 23.82L201.17 22.66C201.435 23.3795 202.087 23.8844 202.85 23.96C205.07 23.96 205.49 21.0477 205.927 18.0062C206.15 16.4587 206.378 14.8777 206.85 13.63C206.643 13.9054 206.422 14.2025 206.188 14.5172L206.188 14.5178C204.994 16.1225 203.462 18.1822 201.79 20.13C198.85 23.55 195.39 26.7 192.52 26.7C189.65 26.7 188.58 24.28 190.09 21.64L193.85 15.11C194.208 14.4657 194.124 13.6659 193.64 13.11L193.16 12.53L192.508 13.4069C190.074 16.6789 188.855 18.3176 187.28 20.16C184.28 23.58 180.28 26.73 176.28 26.73C173.14 26.73 171.27 24.78 171.46 22.21C170.021 23.0463 168.402 23.5263 166.74 23.61C166.477 23.6274 166.213 23.6274 165.95 23.61C164.558 25.568 162.349 26.7833 159.95 26.91C157.65 26.91 155.84 25.54 155.84 23.11C153.64 25.21 151.36 26.76 149.3 26.76C146.43 26.76 145.37 24.34 146.87 21.7L150.63 15.17C150.988 14.5257 150.904 13.7259 150.42 13.17L149.94 12.59L149.288 13.4661C146.854 16.7387 145.635 18.3775 144.06 20.22C141.12 23.64 137.73 26.79 134.79 26.79C132.98 26.79 131.88 25.83 131.71 24.46C130 25.87 128.22 26.79 126.78 26.79C123.91 26.79 122.84 24.37 124.35 21.73L129.35 13.11C130.86 10.51 133.52 9 135.44 9C137.413 8.96352 139.067 10.4814 139.2 12.45H141.2L135.45 22.51C134.63 23.96 135.07 24.51 135.86 24.51C137.44 24.51 139.93 22.17 142.5 19.17L142.74 18.9C145.04 16.13 147.17 13.12 148.74 10.9L148.43 10.49C147.16 8.85 147.35 6.83 149.35 5.02L151.2 7.02L151.09 7.11C150.805 7.35811 150.634 7.71146 150.615 8.08874C150.596 8.46601 150.731 8.83472 150.99 9.11L152.99 11.5C154.15 12.9 154.73 14.16 153.5 16.32L149.94 22.55C149.12 24 149.56 24.55 150.35 24.55C151.93 24.55 154.42 22.21 156.99 19.21L157.18 19L167.15 1.78H170.78L166.26 9.61C166.939 9.11664 167.751 8.84114 168.59 8.82H169C169.794 8.86888 170.537 9.23143 171.064 9.82784C171.591 10.4242 171.859 11.2056 171.81 12C171.715 13.4544 171.254 14.8612 170.47 16.09L167.12 21.87C169.194 21.7651 171.135 20.8145 172.49 19.24L172.7 19L176.17 13.03C177.449 10.5202 180.023 8.93444 182.84 8.92C185.75 8.92 187.6 11.39 185.68 14.67L185.17 15.56C182.5 20.17 178.19 20.66 175.9 19.66L175.56 20.28C173.92 23.15 175.22 24.52 177.41 24.52C179.91 24.52 183.19 22.18 185.76 19.18L186 18.91C188.256 16.2047 190.331 13.2705 191.889 11.0668L192 10.91L191.7 10.5C190.43 8.86 190.62 6.84 192.62 5.03L194.47 7.03L194.36 7.12C194.077 7.36952 193.907 7.72362 193.89 8.10087C193.873 8.47812 194.01 8.84604 194.27 9.12L196.27 11.51C197.43 12.91 198.01 14.17 196.78 16.33L193.22 22.56C192.4 24.01 192.84 24.56 193.63 24.56C195.21 24.56 197.7 22.22 200.27 19.22L200.51 18.95C203.059 15.9637 205.615 12.4035 207.295 10.0627C207.731 9.45621 208.107 8.93157 208.41 8.52L211.08 9.96C209.75 12.7236 209.316 15.7271 208.927 18.4191L208.927 18.4193L208.927 18.4195L208.927 18.4197L208.927 18.4199L208.927 18.4201L208.927 18.4204C208.676 20.1599 208.444 21.7694 208 23.1C209.579 22.0002 211.007 20.6992 212.25 19.23L212.45 19L222.32 1.72H225.88L220.2 11.61C222.02 9.76 223.66 8.91 225.2 8.91C227.19 8.91 228.66 10.86 227.12 13.56L221.99 22.56C221.17 24.01 221.61 24.56 222.4 24.56C223.98 24.56 226.47 22.22 229.04 19.22L229.23 19L230.69 16.52L232.44 13.52C234.49 9.96 236.61 8.87 239.35 8.87C242.7 8.87 244.69 12.39 242.53 16.12L239.18 21.9C241.252 21.787 243.19 20.838 244.55 19.27L244.79 19L250.35 9.35H253.91L253.19 10.58C256.82 7.33 262.19 9.22 258.87 14.86L254.94 21.6C254.719 21.9522 254.51 22.3594 254.289 22.7877L254.289 22.7882L254.289 22.7887L254.288 22.7892L254.288 22.7896L254.288 22.7899L254.288 22.7902C254.039 23.2732 253.777 23.7828 253.47 24.27C256.018 23.168 258.251 21.4498 259.97 19.27ZM182.77 14.75C184.89 11.06 181.26 10.48 179.21 14L176.92 18C178.26 18.48 180.55 18.55 182.26 15.64L182.77 14.75ZM133.6 19.61C131.44 23 129.32 24.61 127.85 24.61C127.06 24.61 126.62 24.06 127.44 22.61L132.44 13.95C134.36 10.63 138.15 11.49 136.44 14.7L133.6 19.61ZM159.362 24.1082C159.638 24.37 160.012 24.5016 160.39 24.47L160.38 24.43C161.518 24.3493 162.536 23.6931 163.08 22.69C161.829 21.8439 161.005 20.4986 160.82 19L159.57 21.25C159.214 21.806 159.001 22.4416 158.95 23.1C158.937 23.4795 159.087 23.8464 159.362 24.1082ZM164.1 21C163.1 20.2385 162.536 19.0358 162.59 17.78C162.59 15.25 165.05 11.11 167.07 11.11C167.461 11.1123 167.831 11.2825 168.088 11.5772C168.344 11.872 168.462 12.2628 168.41 12.65C168.372 13.4039 168.138 14.1347 167.73 14.77L164.1 21ZM237 19.22H237.18L239.76 14.75C241.92 11.05 238.5 9.38 236 13.62L234.32 16.54L231.62 21.23C229.5 24.93 233.57 25.47 235.25 22.6V22.53C235.03 22.1681 234.913 21.7534 234.91 21.33C234.907 20.773 235.126 20.2378 235.518 19.8421C235.91 19.4464 236.443 19.2226 237 19.22ZM0.995972 73.257L6.70997 67.544L12.422 73.259L6.70797 78.971L0.995972 73.257ZM358.733 67.57L353.019 73.283L358.731 78.997L364.446 73.285L358.733 67.57Z" fill="white"/>
<path fill-rule="evenodd" clip-rule="evenodd" d="M62.69 62.32V75C62.696 76.3704 62.0731 77.6677 61 78.52C62.0408 79.4696 62.6509 80.8016 62.69 82.21V96.31C62.6524 98.8127 60.6327 100.832 58.13 100.87H42.49V98.79H56C58.5222 98.7794 60.5719 96.7519 60.61 94.23V80.13C60.5775 78.7263 59.9788 77.3955 58.95 76.44C60.0091 75.584 60.6202 74.2918 60.61 72.93V60.25C60.608 59.555 60.4436 58.8702 60.13 58.25C61.6874 59.01 62.6793 60.5871 62.69 62.32ZM49.88 73.48H47.8V63.07H53.15V65.16H49.88V73.48Z" fill="#636466"/>
<path fill-rule="evenodd" clip-rule="evenodd" d="M82.89 91.34H80.81V63.07H86.16V65.16H82.89V91.34ZM49.88 91.34H47.8V80.87H53.15V82.95H49.88V91.34Z" fill="#636466"/>
<path fill-rule="evenodd" clip-rule="evenodd" d="M128.66 78.46C128.662 80.2025 127.651 81.7872 126.07 82.52L129.14 100.87H121.75L121.4 98.79H127.08L124 80.44C125.578 79.7017 126.582 78.1122 126.57 76.37V60.22C126.565 59.5254 126.401 58.8413 126.09 58.22C127.661 58.982 128.659 60.574 128.66 62.32V78.46ZM93.14 58.25C93.4536 58.8702 93.618 59.555 93.62 60.25V94.25C93.5824 96.7527 91.5627 98.7724 89.06 98.81H78C77.3052 98.8065 76.6207 98.6423 76 98.33C76.76 99.8874 78.3371 100.879 80.07 100.89H91.15C93.6527 100.852 95.6724 98.8327 95.71 96.33V62.33C95.6989 60.5919 94.7028 59.0106 93.14 58.25ZM113.82 73.48H115.9V65.16H119.18V63.07H113.82V73.48ZM116.65 80.87H113.82V98.79H108.51V100.88H115.9V82.95H117L116.65 80.87ZM147.93 91.34H145.84V63.07H151.2V65.16H147.93V91.34Z" fill="#636466"/>
<path fill-rule="evenodd" clip-rule="evenodd" d="M158.66 60.25C158.658 59.555 158.494 58.87 158.18 58.25C159.731 59.0191 160.715 60.5987 160.72 62.33V96.33C160.682 98.8327 158.663 100.852 156.16 100.89H145.07C143.337 100.879 141.76 99.8874 141 98.33C141.621 98.6426 142.305 98.8069 143 98.81H154.1C156.603 98.7724 158.622 96.7527 158.66 94.25V60.25ZM180.94 91.34H178.85V63.07H184.21V65.16H180.94V91.34Z" fill="#636466"/>
<path fill-rule="evenodd" clip-rule="evenodd" d="M212.24 57.77V98.79H206.93V100.88H214.32V57.77H212.24ZM191.19 58.25C191.504 58.8702 191.668 59.555 191.67 60.25V94.25C191.632 96.7527 189.613 98.7724 187.11 98.81H173.55V100.89H189.19C191.693 100.852 193.712 98.8327 193.75 96.33V62.33C193.741 60.5942 192.749 59.0134 191.19 58.25ZM245.12 98.79V57.77H247.21V100.88H239.81L239.22 98.79H245.12ZM232.31 79.95V98.79H227.01V100.88H234.4V87.19L232.31 79.95ZM270.69 83H264.58C262.83 82.9911 261.242 81.975 260.5 80.39C261.121 80.7019 261.805 80.8662 262.5 80.87H270.69V83ZM267.41 85.73L265.32 86.21V91.34H267.41V85.73ZM278.14 60.25C278.138 59.555 277.974 58.8702 277.66 58.25C279.217 59.01 280.209 60.5871 280.22 62.32V71.07L272.77 72.8V70.24L278.14 69V60.25Z" fill="#636466"/>
<path fill-rule="evenodd" clip-rule="evenodd" d="M314.15 57.77H311.4L305.17 77.18L312.07 98.79H306.06L306.64 100.63L306.7 100.88H314.15L307.25 79.26L314.15 57.77ZM265.32 63.07V73.48H267.41V65.16H270.68V63.07H265.32ZM277.66 76.05C277.974 76.6702 278.138 77.355 278.14 78.05V94.25C278.102 96.7527 276.083 98.7724 273.58 98.81H262.49C261.795 98.8065 261.111 98.6423 260.49 98.33C261.25 99.8874 262.827 100.879 264.56 100.89H275.64C278.143 100.852 280.162 98.8327 280.2 96.33V80.12C280.193 78.3916 279.21 76.8157 277.66 76.05ZM298.33 80.87H299.01L300.42 85.35V100.88H293.03V98.79H298.33V80.87ZM331.53 98.79V57.77H333.61V100.88H326.23V98.79H331.53Z" fill="#636466"/>
<path d="M168.9 123.85H170.31C175.74 124.13 180 125.58 182.7 128.57C185.44 125.57 189.7 124.11 195.16 123.85H196.51C208.62 124.67 214.14 133.35 223.81 137.04C225.313 137.725 226.949 138.066 228.6 138.04C231.08 137.77 232.66 135.26 232.34 132.46C232 129.46 229.06 126.85 225.78 128.29C225.349 128.49 224.953 128.761 224.61 129.09C224.36 129.32 224.08 129.92 223.44 129.7C222.84 129.2 223.44 128.47 223.75 128.05C224.962 125.895 227.372 124.704 229.82 125.05C235.45 125.45 240.49 130.39 239.63 137.87C237.71 149 227.53 152 215.46 153H211.53C200.996 152.573 190.892 148.709 182.76 142C174.564 148.686 164.427 152.544 153.86 153H150C137.84 151.93 127.56 149 125.77 137.54C125.09 129.38 129.95 125.37 135.59 124.96C138.057 124.615 140.486 125.802 141.73 127.96C142.01 128.42 142.53 129.13 142.04 129.68C141.43 129.79 141.13 129.31 140.87 129.07C140.132 128.3 139.116 127.858 138.05 127.84C134.19 127.7 131.97 131.99 133.51 135.45C134.122 136.816 135.397 137.769 136.88 137.97C138.529 137.978 140.162 137.638 141.67 136.97C143.015 136.455 144.31 135.819 145.54 135.07C152.89 130.81 158.64 124.76 168.9 123.85V123.85Z" fill="white"/>
<path fill-rule="evenodd" clip-rule="evenodd" d="M368.347 77.192L362.634 82.906L364.72 84.992L370.433 79.277L368.347 77.192ZM16.38 77.236L10.667 82.95L12.753 85.035L18.466 79.322L16.38 77.236Z" fill="#636466"/>
<path fill-rule="evenodd" clip-rule="evenodd" d="M89.66 56.28C89.6436 53.7684 87.6116 51.7364 85.1 51.72H74C72.7897 51.7173 71.6283 52.1969 70.7726 53.0527C69.9169 53.9084 69.4373 55.0698 69.44 56.28V90.28C69.4563 92.7916 71.4883 94.8236 74 94.84H85.1C87.6026 94.8024 89.6224 92.7827 89.66 90.28V56.28ZM55 72.48C56.0471 71.6286 56.6535 70.3496 56.65 69V56.28C56.6336 53.7684 54.6016 51.7364 52.09 51.72H36.45V94.83H52.1C54.6026 94.7924 56.6224 92.7727 56.66 90.27V76.17C56.6275 74.7663 56.0288 73.4354 55 72.48ZM43.84 59.11H49.2V69.52H43.84V59.11ZM49.2 76.91H43.84V87.38H49.2V76.91ZM82.2 59.11H76.85V87.38H82.21L82.2 59.11ZM112.71 76.91L115.71 94.83H123.08L120 76.48C121.596 75.7589 122.625 74.1718 122.63 72.42V56.28C122.638 55.0786 122.168 53.9232 121.324 53.068C120.48 52.2128 119.331 51.7279 118.13 51.72H102.49V94.83H109.88V76.91H112.71ZM115.22 59.11H109.86V69.52H115.22V59.11ZM154.7 56.28C154.684 53.7684 152.652 51.7364 150.14 51.72H150.1H139C136.503 51.7474 134.494 53.7826 134.5 56.28V90.28C134.516 92.7916 136.548 94.8236 139.06 94.84H150.14C152.643 94.8024 154.662 92.7827 154.7 90.28V56.28ZM147.24 59.11H141.88V87.38H147.24V59.11ZM187.71 56.28C187.694 53.7684 185.662 51.7364 183.15 51.72H167.51V94.84H183.15C185.653 94.8024 187.672 92.7827 187.71 90.28V56.28ZM180.26 59.11H174.9V87.38H180.26V59.11ZM208.28 51.72H200.89V94.83H208.28V51.72ZM241.17 51.72V94.83H233.78L228.36 76V94.83H221V51.72H228.33L233.75 69.39V51.72H241.17ZM274.18 74.08C274.164 71.5684 272.132 69.5364 269.62 69.52H261.39V59.11H266.75V66.73L274.2 65V56.28C274.184 53.7684 272.152 51.7364 269.64 51.72H258.54C257.333 51.7226 256.177 52.2046 255.326 53.0597C254.474 53.9149 253.997 55.0733 254 56.28V72.37C254.003 73.5767 254.485 74.733 255.34 75.5844C256.195 76.4358 257.353 76.9127 258.56 76.91H266.75V87.39H261.39V79.69L254 81.41V90.28C254.016 92.7839 256.036 94.8128 258.54 94.84H269.62C272.123 94.8024 274.142 92.7827 274.18 90.28V74.08ZM301.22 73.22L308.12 94.84H300.67L300.61 94.59L295.07 76.92H294.39V94.83H287V51.72H294.39V69.52H295L300.67 51.72H308.18L301.22 73.22ZM327.58 51.72H320.19V94.83H327.58V51.72Z" fill="white"/>
</svg>
